<svg width="400" height="457" viewBox="0 0 400 457" fill="none" xmlns="http://www.w3.org/2000/svg">
<path d="M59.485 234.523L118.696 200.257C124.909 196.602 130.392 196.145 135.143 198.886C140.077 201.628 142.545 206.653 142.545 213.963V389.403L118.696 403.109V348.284L59.485 382.55V437.375L35.6361 451.081V275.641C35.6361 270.707 36.7326 265.59 38.9256 260.29C41.1186 254.808 44.0426 249.782 47.6976 245.213C51.3526 240.462 55.2817 236.898 59.485 234.523ZM118.696 320.872V227.669L59.485 261.935V355.137L118.696 320.872ZM118.696 348.284V403.109L94.847 389.403V334.578L118.696 348.284ZM118.696 227.669V320.872L94.847 307.166V213.963L118.696 227.669ZM118.696 320.872L59.485 355.137L35.6361 341.431L94.847 307.166L118.696 320.872ZM135.417 198.886C130.483 196.145 124.909 196.602 118.696 200.257L59.485 234.523C55.2817 236.898 51.3526 240.462 47.6976 245.213C44.0426 249.782 41.1186 254.808 38.9256 260.29C36.7326 265.59 35.6361 270.707 35.6361 275.641V451.081L11.7873 437.375V261.935C11.7873 257.001 12.8838 251.884 15.0768 246.584C17.2698 241.102 20.1938 236.076 23.8488 231.507C27.5038 226.756 31.4329 223.192 35.6361 220.816L94.847 186.551C101.243 182.896 106.817 182.439 111.569 185.18L135.417 198.886Z" fill="white"/>
<path d="M205.685 263.763C199.289 267.418 193.715 267.875 188.964 265.133C184.212 262.392 181.836 257.367 181.836 250.057V184.267C181.836 179.332 182.933 174.215 185.126 168.916C187.319 163.433 190.243 158.408 193.898 153.839C197.553 149.087 201.482 145.524 205.685 143.148L264.896 108.883C271.109 105.228 276.592 104.771 281.343 107.512C286.278 110.253 288.745 115.279 288.745 122.589V160.966L264.896 174.672V136.295L205.685 170.56V236.35L264.896 202.085C271.109 198.43 276.592 197.973 281.343 200.714C286.278 203.455 288.745 208.481 288.745 215.791V281.581C288.745 286.332 287.557 291.449 285.181 296.932C282.988 302.414 280.064 307.531 276.409 312.283C272.937 316.851 269.099 320.324 264.896 322.699L205.685 356.965C199.289 360.62 193.715 361.077 188.964 358.336C184.212 355.594 181.836 350.569 181.836 343.259V315.846L205.685 302.14V329.553L264.896 295.287V229.497L205.685 263.763ZM264.896 229.497V295.287L241.047 281.581V215.791L264.896 229.497ZM264.896 295.287L205.685 329.553L181.836 315.846L241.047 281.581L264.896 295.287ZM264.896 136.295V174.672L241.047 160.966V122.589L264.896 136.295ZM205.685 302.14L181.836 315.846L157.988 302.14L181.836 288.434L205.685 302.14ZM181.836 315.846V343.259C181.836 350.569 184.212 355.594 188.964 358.336L165.115 344.629C160.363 341.888 157.988 336.863 157.988 329.553V302.14L181.836 315.846ZM281.618 200.714C276.683 197.973 271.109 198.43 264.896 202.085L205.685 236.35L181.836 222.644L241.047 188.379C247.443 184.724 253.017 184.267 257.769 187.008L281.618 200.714ZM281.618 107.512C276.683 104.771 271.109 105.228 264.896 108.883L205.685 143.148C201.482 145.524 197.553 149.087 193.898 153.839C190.243 158.408 187.319 163.433 185.126 168.916C182.933 174.215 181.836 179.332 181.836 184.267V250.057C181.836 257.367 184.212 262.392 188.964 265.133L165.115 251.427C160.363 248.686 157.988 243.66 157.988 236.35V170.56C157.988 165.626 159.084 160.509 161.277 155.21C163.47 149.727 166.394 144.701 170.049 140.133C173.704 135.381 177.633 131.818 181.836 129.442L241.047 95.1763C247.443 91.5213 253.017 91.0645 257.769 93.8057L281.618 107.512Z" fill="white"/>
<path opacity="0.5" d="M118.559 432.756L121.377 428.05C121.621 427.635 121.925 427.431 122.291 427.437C122.656 427.442 122.958 427.658 123.195 428.084L127.462 435.748L126.533 437.311L125.644 435.714C125.798 435.991 125.9 436.324 125.95 436.715C126 437.105 125.996 437.498 125.937 437.893C125.873 438.278 125.756 438.608 125.589 438.882L124.66 440.445C124.406 440.866 124.096 441.073 123.73 441.067C123.365 441.062 123.063 440.846 122.826 440.42L121.582 438.185C121.422 437.897 121.32 437.564 121.275 437.184C121.225 436.794 121.233 436.406 121.297 436.021C121.356 435.626 121.47 435.291 121.637 435.016L123.511 431.882L122.266 429.646L119.448 434.353L118.559 432.756ZM123.771 438.849L125.644 435.714L124.4 433.479L122.526 436.613L123.771 438.849ZM122.266 429.646L123.511 431.882L121.677 431.857L120.433 429.621L122.266 429.646ZM125.644 435.714L126.533 437.311L124.7 437.286L123.811 435.689L125.644 435.714ZM124.4 433.479L125.644 435.714L123.811 435.689L122.566 433.454L124.4 433.479ZM125.644 435.714L123.771 438.849L121.937 438.824L123.811 435.689L125.644 435.714ZM123.511 431.882L121.637 435.016C121.47 435.291 121.356 435.626 121.297 436.021C121.233 436.406 121.225 436.794 121.275 437.184C121.32 437.564 121.422 437.897 121.582 438.185L122.826 440.42C123.063 440.846 123.365 441.062 123.73 441.067L121.897 441.042C121.531 441.037 121.23 440.821 120.993 440.395L119.748 438.16C119.588 437.873 119.486 437.539 119.442 437.159C119.392 436.769 119.399 436.381 119.464 435.996C119.523 435.601 119.636 435.266 119.804 434.991L121.677 431.857L123.511 431.882ZM122.291 427.437C121.925 427.431 121.621 427.635 121.377 428.05L118.559 432.756L116.726 432.731L119.544 428.025C119.798 427.604 120.107 427.397 120.473 427.403L122.291 427.437ZM118.559 432.756L119.448 434.353L117.615 434.328L116.726 432.731L118.559 432.756ZM128.728 425.003L129.673 423.431C129.916 423.017 130.221 422.813 130.586 422.818C130.952 422.824 131.253 423.039 131.49 423.465L134.513 428.894C134.667 429.171 134.769 429.504 134.819 429.895C134.869 430.285 134.865 430.678 134.806 431.073C134.752 431.452 134.641 431.779 134.473 432.054L131.655 436.76L124.543 423.986L125.488 422.414L128.688 428.163C128.528 427.875 128.426 427.542 128.382 427.162C128.332 426.771 128.334 426.387 128.388 426.008C128.447 425.613 128.56 425.278 128.728 425.003ZM130.562 425.028L128.688 428.163L131.711 433.591L133.584 430.457L130.562 425.028ZM130.562 425.028L133.584 430.457L131.75 430.432L128.728 425.003L130.562 425.028ZM133.584 430.457L131.711 433.591L129.877 433.566L131.75 430.432L133.584 430.457ZM130.586 422.818C130.221 422.813 129.916 423.017 129.673 423.431L128.728 425.003C128.56 425.278 128.447 425.613 128.388 426.008C128.334 426.387 128.332 426.771 128.382 427.162C128.426 427.542 128.528 427.875 128.688 428.163L126.855 428.138C126.695 427.85 126.593 427.517 126.548 427.137C126.498 426.746 126.506 426.359 126.57 425.974C126.629 425.579 126.743 425.244 126.91 424.969L127.839 423.406C128.093 422.986 128.403 422.779 128.769 422.784L130.586 422.818ZM125.488 422.414L124.543 423.986L122.71 423.961L123.654 422.39L125.488 422.414ZM124.543 423.986L131.655 436.76L129.821 436.735L122.71 423.961L124.543 423.986ZM136.45 422.586L137.379 421.023C137.633 420.603 137.943 420.396 138.309 420.401C138.674 420.407 138.976 420.623 139.213 421.048L136.99 417.057L137.919 415.494L144.053 426.511C143.809 426.925 143.505 427.13 143.139 427.124C142.773 427.119 142.472 426.903 142.235 426.477C142.389 426.754 142.491 427.087 142.541 427.478C142.591 427.868 142.587 428.261 142.528 428.657C142.463 429.041 142.347 429.371 142.179 429.646L141.251 431.208C140.997 431.629 140.687 431.836 140.321 431.831C139.955 431.825 139.654 431.609 139.417 431.183L136.395 425.755C136.235 425.467 136.133 425.134 136.088 424.754C136.038 424.363 136.046 423.976 136.11 423.591C136.169 423.196 136.283 422.861 136.45 422.586ZM137.339 424.183L140.362 429.612L142.235 426.477L139.213 421.048L137.339 424.183ZM142.235 426.477C142.472 426.903 142.773 427.119 143.139 427.124L141.306 427.099C140.94 427.094 140.639 426.878 140.401 426.452L142.235 426.477ZM137.919 415.494L136.99 417.057L135.157 417.032L136.101 415.46L137.919 415.494ZM136.99 417.057L139.213 421.048L137.379 421.023L135.157 417.032L136.99 417.057ZM139.213 421.048L142.235 426.477L140.401 426.452L137.379 421.023L139.213 421.048ZM142.235 426.477L140.362 429.612L138.528 429.587L140.401 426.452L142.235 426.477ZM138.309 420.401C137.943 420.396 137.633 420.603 137.379 421.023L136.45 422.586C136.283 422.861 136.169 423.196 136.11 423.591C136.046 423.976 136.038 424.363 136.088 424.754C136.133 425.134 136.235 425.467 136.395 425.755L139.417 431.183C139.654 431.609 139.955 431.825 140.321 431.831L138.488 431.806C138.122 431.8 137.82 431.584 137.583 431.159L134.561 425.73C134.401 425.442 134.299 425.109 134.255 424.729C134.205 424.338 134.212 423.951 134.277 423.566C134.336 423.171 134.449 422.836 134.617 422.561L135.561 420.989C135.805 420.575 136.109 420.371 136.475 420.376L138.309 420.401ZM143.801 419.54L144.746 417.968L148.657 424.993L150.53 421.859L146.619 414.833L147.548 413.27L152.348 421.893L151.419 423.455L150.53 421.859C150.685 422.135 150.787 422.469 150.837 422.86C150.887 423.25 150.882 423.643 150.824 424.038C150.759 424.423 150.643 424.752 150.475 425.027L149.546 426.59C149.292 427.01 148.982 427.218 148.617 427.212C148.251 427.207 147.95 426.991 147.712 426.565L143.801 419.54ZM150.53 421.859L151.419 423.455L149.586 423.43L148.697 421.834L150.53 421.859ZM147.548 413.27L146.619 414.833L144.785 414.808L145.73 413.236L147.548 413.27ZM146.619 414.833L150.53 421.859L148.697 421.834L144.785 414.808L146.619 414.833ZM144.746 417.968L143.801 419.54L141.967 419.515L142.912 417.943L144.746 417.968ZM150.53 421.859L148.657 424.993L146.824 424.968L148.697 421.834L150.53 421.859ZM143.801 419.54L147.712 426.565C147.95 426.991 148.251 427.207 148.617 427.212L146.783 427.187C146.417 427.182 146.116 426.966 145.879 426.54L141.967 419.515L143.801 419.54ZM156.953 420.375L158.346 418.031L159.235 419.627L157.842 421.972C157.587 422.392 157.278 422.599 156.912 422.594C156.546 422.588 156.245 422.372 156.008 421.947L149.43 410.131L150.374 408.559L156.953 420.375ZM150.374 408.559L149.43 410.131L147.596 410.106L148.541 408.534L150.374 408.559ZM158.346 418.031L156.953 420.375L155.119 420.35L156.528 417.997L158.346 418.031ZM149.43 410.131L156.008 421.947C156.245 422.372 156.546 422.588 156.912 422.594L155.078 422.569C154.713 422.563 154.411 422.347 154.174 421.922L147.596 410.106L149.43 410.131ZM163.174 416.911L164.567 414.567L165.456 416.164L164.063 418.508C163.809 418.928 163.499 419.135 163.134 419.13C162.768 419.124 162.467 418.909 162.229 418.483L155.651 406.667L156.596 405.095L163.174 416.911ZM156.596 405.095L155.651 406.667L153.818 406.642L154.762 405.07L156.596 405.095ZM164.567 414.567L163.174 416.911L161.34 416.886L162.75 414.533L164.567 414.567ZM155.651 406.667L162.229 418.483C162.467 418.909 162.768 419.124 163.134 419.13L161.3 419.105C160.934 419.099 160.633 418.884 160.396 418.458L153.818 406.642L155.651 406.667ZM164.184 407.355L167.002 402.648C167.245 402.234 167.55 402.03 167.916 402.035C168.281 402.041 168.583 402.257 168.82 402.682L173.087 410.347L172.158 411.909L171.269 410.313C171.423 410.589 171.525 410.923 171.575 411.314C171.625 411.704 171.621 412.097 171.562 412.492C171.497 412.877 171.381 413.206 171.213 413.481L170.285 415.044C170.031 415.464 169.721 415.672 169.355 415.666C168.989 415.661 168.688 415.445 168.451 415.019L167.206 412.784C167.046 412.496 166.944 412.163 166.9 411.783C166.85 411.392 166.858 411.005 166.922 410.62C166.981 410.225 167.094 409.89 167.262 409.615L169.136 406.481L167.891 404.245L165.073 408.952L164.184 407.355ZM169.396 413.447L171.269 410.313L170.024 408.077L168.151 411.212L169.396 413.447ZM167.891 404.245L169.136 406.481L167.302 406.456L166.057 404.22L167.891 404.245ZM171.269 410.313L172.158 411.909L170.324 411.884L169.435 410.288L171.269 410.313ZM170.024 408.077L171.269 410.313L169.435 410.288L168.191 408.052L170.024 408.077ZM171.269 410.313L169.396 413.447L167.562 413.422L169.435 410.288L171.269 410.313ZM169.136 406.481L167.262 409.615C167.094 409.89 166.981 410.225 166.922 410.62C166.858 411.005 166.85 411.392 166.9 411.783C166.944 412.163 167.046 412.496 167.206 412.784L168.451 415.019C168.688 415.445 168.989 415.661 169.355 415.666L167.521 415.641C167.156 415.636 166.854 415.42 166.617 414.994L165.373 412.759C165.213 412.471 165.111 412.138 165.067 411.758C165.017 411.367 165.024 410.98 165.089 410.595C165.147 410.2 165.261 409.865 165.429 409.59L167.302 406.456L169.136 406.481ZM167.916 402.035C167.55 402.03 167.245 402.234 167.002 402.648L164.184 407.355L162.35 407.33L165.168 402.623C165.422 402.203 165.732 401.996 166.098 402.001L167.916 402.035ZM164.184 407.355L165.073 408.952L163.239 408.927L162.35 407.33L164.184 407.355ZM174.353 399.602L175.297 398.03C175.541 397.616 175.845 397.411 176.211 397.417C176.577 397.422 176.878 397.638 177.115 398.064L181.027 405.089L180.098 406.652L176.186 399.627L174.313 402.761L178.224 409.787L177.28 411.359L170.168 398.585L171.113 397.013L174.313 402.761C174.153 402.474 174.051 402.14 174.007 401.761C173.957 401.37 173.959 400.985 174.013 400.607C174.072 400.211 174.185 399.876 174.353 399.602ZM176.186 399.627L180.098 406.652L178.264 406.627L174.353 399.602L176.186 399.627ZM176.211 397.417C175.845 397.411 175.541 397.616 175.297 398.03L174.353 399.602C174.185 399.876 174.072 400.211 174.013 400.607C173.959 400.985 173.957 401.37 174.007 401.761C174.051 402.14 174.153 402.474 174.313 402.761L172.479 402.736C172.319 402.449 172.217 402.115 172.173 401.736C172.123 401.345 172.131 400.958 172.195 400.573C172.254 400.178 172.367 399.843 172.535 399.568L173.464 398.005C173.718 397.585 174.028 397.377 174.393 397.383L176.211 397.417ZM171.113 397.013L170.168 398.585L168.335 398.56L169.279 396.988L171.113 397.013ZM170.168 398.585L177.28 411.359L175.446 411.334L168.335 398.56L170.168 398.585ZM184.742 401.975C184.488 402.395 184.178 402.603 183.812 402.597C183.447 402.592 183.145 402.376 182.908 401.95L182.019 400.353C181.859 400.066 181.757 399.732 181.713 399.353C181.663 398.962 181.67 398.575 181.735 398.19C181.794 397.795 181.907 397.46 182.075 397.185L184.877 392.487L185.766 394.084L182.964 398.782L183.853 400.378L185.726 397.244C185.97 396.829 186.274 396.625 186.64 396.631C187.006 396.636 187.307 396.852 187.544 397.278L188.433 398.874C188.587 399.151 188.689 399.485 188.739 399.875C188.789 400.266 188.785 400.658 188.726 401.054C188.672 401.432 188.561 401.759 188.393 402.034L185.575 406.74L184.686 405.144L187.504 400.437L186.615 398.84L184.742 401.975ZM186.615 398.84L187.504 400.437L185.671 400.412L184.782 398.815L186.615 398.84ZM187.504 400.437L184.686 405.144L182.853 405.119L185.671 400.412L187.504 400.437ZM184.686 405.144L185.575 406.74L183.742 406.715L182.853 405.119L184.686 405.144ZM186.64 396.631C186.274 396.625 185.97 396.829 185.726 397.244L183.853 400.378L182.019 400.353L183.893 397.219C184.147 396.798 184.457 396.591 184.822 396.597L186.64 396.631ZM184.877 392.487L182.075 397.185C181.907 397.46 181.794 397.795 181.735 398.19C181.67 398.575 181.663 398.962 181.713 399.353C181.757 399.732 181.859 400.066 182.019 400.353L182.908 401.95C183.145 402.376 183.447 402.592 183.812 402.597L181.979 402.572C181.613 402.567 181.312 402.351 181.075 401.925L180.186 400.328C180.026 400.041 179.924 399.707 179.88 399.328C179.83 398.937 179.837 398.55 179.902 398.165C179.96 397.77 180.074 397.435 180.241 397.16L183.06 392.454L184.877 392.487ZM189.07 393.5L191.888 388.793C192.132 388.379 192.436 388.174 192.802 388.18C193.168 388.186 193.469 388.401 193.706 388.827L197.973 396.491L197.044 398.054L196.155 396.457C196.309 396.734 196.411 397.068 196.462 397.458C196.512 397.849 196.507 398.242 196.448 398.637C196.384 399.022 196.267 399.351 196.1 399.626L195.171 401.189C194.917 401.609 194.607 401.816 194.241 401.811C193.876 401.805 193.574 401.59 193.337 401.164L192.093 398.928C191.933 398.641 191.831 398.307 191.787 397.928C191.736 397.537 191.744 397.15 191.809 396.765C191.867 396.37 191.981 396.035 192.148 395.76L194.022 392.625L192.777 390.39L189.959 395.096L189.07 393.5ZM194.282 399.592L196.155 396.457L194.911 394.222L193.037 397.357L194.282 399.592ZM192.777 390.39L194.022 392.625L192.188 392.6L190.944 390.365L192.777 390.39ZM196.155 396.457L197.044 398.054L195.211 398.029L194.322 396.432L196.155 396.457ZM194.911 394.222L196.155 396.457L194.322 396.432L193.077 394.197L194.911 394.222ZM196.155 396.457L194.282 399.592L192.448 399.567L194.322 396.432L196.155 396.457ZM194.022 392.625L192.148 395.76C191.981 396.035 191.867 396.37 191.809 396.765C191.744 397.15 191.736 397.537 191.787 397.928C191.831 398.307 191.933 398.641 192.093 398.928L193.337 401.164C193.574 401.59 193.876 401.805 194.241 401.811L192.408 401.786C192.042 401.78 191.741 401.565 191.504 401.139L190.259 398.903C190.099 398.616 189.997 398.282 189.953 397.903C189.903 397.512 189.91 397.125 189.975 396.74C190.034 396.345 190.147 396.01 190.315 395.735L192.188 392.6L194.022 392.625ZM192.802 388.18C192.436 388.174 192.132 388.379 191.888 388.793L189.07 393.5L187.237 393.475L190.055 388.768C190.309 388.348 190.619 388.141 190.984 388.146L192.802 388.18ZM189.07 393.5L189.959 395.096L188.126 395.071L187.237 393.475L189.07 393.5ZM199.239 385.747L200.184 384.175C200.427 383.76 200.732 383.556 201.097 383.562C201.463 383.567 201.764 383.783 202.001 384.209L205.913 391.234L204.984 392.797L201.073 385.772L199.199 388.906L203.111 395.932L202.166 397.503L195.054 384.73L195.999 383.158L199.199 388.906C199.039 388.619 198.937 388.285 198.893 387.905C198.843 387.515 198.845 387.13 198.899 386.752C198.958 386.356 199.071 386.021 199.239 385.747ZM201.073 385.772L204.984 392.797L203.15 392.772L199.239 385.747L201.073 385.772ZM201.097 383.562C200.732 383.556 200.427 383.76 200.184 384.175L199.239 385.747C199.071 386.021 198.958 386.356 198.899 386.752C198.845 387.13 198.843 387.515 198.893 387.905C198.937 388.285 199.039 388.619 199.199 388.906L197.366 388.881C197.206 388.594 197.104 388.26 197.059 387.88C197.009 387.49 197.017 387.102 197.082 386.718C197.14 386.322 197.254 385.987 197.421 385.713L198.35 384.15C198.604 383.73 198.914 383.522 199.28 383.528L201.097 383.562ZM195.999 383.158L195.054 384.73L193.221 384.705L194.165 383.133L195.999 383.158ZM195.054 384.73L202.166 397.503L200.332 397.478L193.221 384.705L195.054 384.73ZM210.982 388.935L208.315 384.145L206.906 386.498L206.017 384.901L209.763 378.632L210.652 380.229L209.243 382.582L211.91 387.372L213.319 385.019L214.208 386.616L210.462 392.885L209.573 391.288L210.982 388.935ZM207.09 380.33C206.902 380.644 206.683 380.801 206.432 380.801C206.192 380.795 205.983 380.633 205.805 380.313C205.627 379.994 205.54 379.624 205.543 379.204C205.557 378.778 205.658 378.408 205.845 378.094C206.033 377.781 206.247 377.627 206.488 377.632C206.738 377.632 206.953 377.792 207.131 378.111C207.308 378.43 207.39 378.803 207.377 379.229C207.373 379.649 207.278 380.016 207.09 380.33ZM210.982 388.935L209.573 391.288L207.739 391.263L209.148 388.91L210.982 388.935ZM209.573 391.288L210.462 392.885L208.628 392.86L207.739 391.263L209.573 391.288ZM213.319 385.019L211.91 387.372L210.093 387.338L211.502 384.985L213.319 385.019ZM208.315 384.145L210.982 388.935L209.148 388.91L206.481 384.12L208.315 384.145ZM209.763 378.632L206.017 384.901L204.183 384.876L207.946 378.598L209.763 378.632ZM206.017 384.901L206.906 386.498L205.072 386.473L204.183 384.876L206.017 384.901ZM206.504 377.623C206.253 377.624 206.033 377.781 205.845 378.094C205.658 378.408 205.557 378.778 205.543 379.204C205.54 379.624 205.627 379.994 205.805 380.313C205.983 380.633 206.197 380.792 206.448 380.792L204.614 380.767C204.374 380.761 204.165 380.599 203.987 380.279C203.809 379.96 203.722 379.59 203.725 379.17C203.728 378.75 203.829 378.38 204.028 378.061C204.216 377.747 204.43 377.593 204.67 377.598L206.504 377.623ZM213.957 379.644L214.901 378.073L215.79 379.669C215.63 379.382 215.528 379.048 215.484 378.668C215.434 378.278 215.436 377.893 215.49 377.515C215.549 377.119 215.662 376.784 215.83 376.51L216.775 374.938C217.018 374.524 217.322 374.319 217.688 374.325C218.054 374.33 218.355 374.546 218.592 374.972L222.504 381.997L221.575 383.56L217.664 376.535L215.79 379.669L219.702 386.695L218.757 388.267L213.957 379.644ZM217.664 376.535L221.575 383.56L219.741 383.535L215.83 376.51L217.664 376.535ZM213.957 379.644L218.757 388.267L216.923 388.242L212.123 379.619L213.957 379.644ZM217.688 374.325C217.322 374.319 217.018 374.524 216.775 374.938L215.83 376.51C215.662 376.784 215.549 377.119 215.49 377.515C215.436 377.893 215.434 378.278 215.484 378.668C215.528 379.048 215.63 379.382 215.79 379.669L213.957 379.644C213.797 379.357 213.694 379.023 213.65 378.644C213.6 378.253 213.608 377.865 213.672 377.481C213.731 377.086 213.844 376.751 214.012 376.476L214.941 374.913C215.195 374.493 215.505 374.285 215.87 374.291L217.688 374.325ZM214.901 378.073L213.957 379.644L212.123 379.619L213.068 378.048L214.901 378.073ZM228.154 383.035C227.935 383.394 227.687 383.574 227.409 383.575C227.142 383.571 226.904 383.382 226.697 383.009C226.489 382.637 226.386 382.213 226.387 381.739C226.398 381.258 226.513 380.839 226.732 380.48C226.95 380.121 227.193 379.944 227.461 379.949C227.739 379.947 227.982 380.133 228.189 380.505C228.396 380.878 228.494 381.304 228.483 381.785C228.482 382.259 228.373 382.676 228.154 383.035ZM227.477 379.94C227.199 379.941 226.95 380.121 226.732 380.48C226.513 380.839 226.398 381.258 226.387 381.739C226.386 382.213 226.489 382.637 226.697 383.009C226.904 383.382 227.142 383.571 227.409 383.575L225.591 383.541C225.313 383.543 225.071 383.357 224.863 382.985C224.656 382.612 224.552 382.188 224.553 381.714C224.565 381.233 224.685 380.811 224.914 380.446C225.133 380.087 225.376 379.91 225.643 379.915L227.477 379.94ZM228.171 370.685L230.044 367.55C230.288 367.136 230.592 366.931 230.958 366.937C231.323 366.943 231.625 367.158 231.862 367.584L235.24 373.652C235.394 373.928 235.496 374.262 235.546 374.652C235.596 375.043 235.592 375.436 235.533 375.831C235.479 376.21 235.368 376.537 235.2 376.811L233.327 379.946C233.073 380.366 232.763 380.573 232.397 380.568C232.032 380.562 231.73 380.347 231.493 379.921L228.115 373.853C227.955 373.566 227.853 373.232 227.809 372.852C227.759 372.462 227.766 372.074 227.831 371.69C227.89 371.295 228.003 370.96 228.171 370.685ZM232.438 378.349L234.311 375.214L230.933 369.147L229.06 372.282L232.438 378.349ZM230.933 369.147L234.311 375.214L232.477 375.19L229.099 369.122L230.933 369.147ZM234.311 375.214L232.438 378.349L230.604 378.324L232.477 375.19L234.311 375.214ZM230.958 366.937C230.592 366.931 230.288 367.136 230.044 367.55L228.171 370.685C228.003 370.96 227.89 371.295 227.831 371.69C227.766 372.074 227.759 372.462 227.809 372.852C227.853 373.232 227.955 373.566 228.115 373.853L231.493 379.921C231.73 380.347 232.032 380.562 232.397 380.568L230.564 380.543C230.198 380.537 229.897 380.322 229.659 379.896L226.281 373.828C226.121 373.541 226.019 373.207 225.975 372.828C225.925 372.437 225.933 372.05 225.997 371.665C226.056 371.27 226.169 370.935 226.337 370.66L228.211 367.525C228.465 367.105 228.774 366.898 229.14 366.903L230.958 366.937ZM235.877 368.277L236.822 366.705L237.711 368.302L238.639 366.739C238.479 366.452 238.377 366.118 238.333 365.738C238.283 365.348 238.29 364.96 238.355 364.575C238.414 364.18 238.527 363.845 238.695 363.571L239.624 362.008L240.513 363.604L239.584 365.167C239.738 365.444 239.84 365.778 239.89 366.168C239.94 366.559 239.936 366.951 239.877 367.347C239.812 367.731 239.696 368.061 239.528 368.336L238.6 369.899L241.267 374.689L240.322 376.26L235.877 368.277ZM235.877 368.277L240.322 376.26L238.488 376.235L234.043 368.252L235.877 368.277ZM239.624 362.008L238.695 363.571C238.527 363.845 238.414 364.18 238.355 364.575C238.29 364.96 238.283 365.348 238.333 365.738C238.377 366.118 238.479 366.452 238.639 366.739L236.822 366.705C236.662 366.418 236.56 366.084 236.516 365.704C236.466 365.314 236.468 364.929 236.522 364.551C236.58 364.155 236.694 363.82 236.862 363.546L237.806 361.974L239.624 362.008ZM238.639 366.739L237.711 368.302L235.877 368.277L236.822 366.705L238.639 366.739ZM236.822 366.705L235.877 368.277L234.043 368.252L234.988 366.68L236.822 366.705ZM248.06 369.024C247.806 369.444 247.496 369.652 247.131 369.646C246.765 369.64 246.464 369.425 246.227 368.999L244.36 365.646C244.2 365.358 244.098 365.025 244.054 364.645C244.004 364.255 244.011 363.867 244.076 363.482C244.134 363.087 244.248 362.752 244.416 362.477L245.344 360.915C245.598 360.494 245.908 360.287 246.274 360.292C246.639 360.298 246.941 360.514 247.178 360.939L246.289 359.343L247.218 357.78L252.018 366.402C252.172 366.679 252.274 367.013 252.324 367.403C252.374 367.793 252.367 368.181 252.302 368.566C252.254 368.955 252.146 369.287 251.978 369.562L249.16 374.268L248.271 372.671L251.089 367.965L249.045 364.293C249.199 364.569 249.301 364.903 249.351 365.293C249.401 365.684 249.397 366.077 249.338 366.472C249.273 366.857 249.157 367.186 248.989 367.461L248.06 369.024ZM247.171 367.427L249.045 364.293L247.178 360.939L245.304 364.074L247.171 367.427ZM249.045 364.293L251.089 367.965L249.256 367.94L247.211 364.268L249.045 364.293ZM251.089 367.965L248.271 372.671L246.438 372.646L249.256 367.94L251.089 367.965ZM248.271 372.671L249.16 374.268L247.327 374.243L246.438 372.646L248.271 372.671ZM247.218 357.78L246.289 359.343L244.455 359.318L245.4 357.746L247.218 357.78ZM246.289 359.343L247.178 360.939L245.344 360.915L244.455 359.318L246.289 359.343ZM247.178 360.939L249.045 364.293L247.211 364.268L245.344 360.915L247.178 360.939ZM249.045 364.293L247.171 367.427L245.338 367.402L247.211 364.268L249.045 364.293ZM246.274 360.292C245.908 360.287 245.598 360.494 245.344 360.915L244.416 362.477C244.248 362.752 244.134 363.087 244.076 363.482C244.011 363.867 244.004 364.255 244.054 364.645C244.098 365.025 244.2 365.358 244.36 365.646L246.227 368.999C246.464 369.425 246.765 369.64 247.131 369.646L245.297 369.621C244.931 369.615 244.63 369.4 244.393 368.974L242.526 365.621C242.366 365.333 242.264 365 242.22 364.62C242.17 364.23 242.177 363.842 242.242 363.457C242.301 363.062 242.414 362.727 242.582 362.452L243.527 360.881C243.77 360.466 244.074 360.262 244.44 360.267L246.274 360.292Z" fill="white"/>
<path opacity="0.01" d="M46.1418 433.363C46.3489 433.729 46.3854 434.033 46.2514 434.277C46.1174 434.509 45.8372 434.624 45.4108 434.624C44.9844 434.624 44.564 434.509 44.1498 434.277C43.7356 434.033 43.4249 433.729 43.2178 433.363C43.0107 432.998 42.9741 432.699 43.1081 432.468C43.2421 432.224 43.5224 432.102 43.9488 432.102C44.3752 432.102 44.7955 432.224 45.2098 432.468C45.624 432.699 45.9347 432.998 46.1418 433.363ZM54.9137 433.363C55.1209 433.729 55.1574 434.033 55.0234 434.277C54.8894 434.509 54.6092 434.624 54.1827 434.624C53.7563 434.624 53.336 434.509 52.9218 434.277C52.5075 434.033 52.1969 433.729 51.9898 433.363C51.7826 432.998 51.7461 432.699 51.8801 432.468C52.0141 432.224 52.2943 432.102 52.7208 432.102C53.1472 432.102 53.5675 432.224 53.9817 432.468C54.396 432.699 54.7066 432.998 54.9137 433.363ZM43.1081 432.45C42.9741 432.693 43.0107 432.998 43.2178 433.363C43.4249 433.729 43.7356 434.033 44.1498 434.277C44.564 434.509 44.9844 434.624 45.4108 434.624C45.8372 434.624 46.1174 434.509 46.2514 434.277L45.3377 435.849C45.2037 436.092 44.9234 436.214 44.497 436.214C44.0706 436.214 43.6503 436.098 43.2361 435.867C42.8218 435.623 42.5111 435.313 42.304 434.935C42.0969 434.569 42.0604 434.271 42.1944 434.039L43.1081 432.45ZM51.8801 432.45C51.7461 432.693 51.7826 432.998 51.9898 433.363C52.1969 433.729 52.5075 434.033 52.9218 434.277C53.336 434.509 53.7563 434.624 54.1827 434.624C54.6092 434.624 54.8894 434.509 55.0234 434.277L54.1096 435.849C53.9756 436.092 53.6954 436.214 53.269 436.214C52.8426 436.214 52.4223 436.098 52.008 435.867C51.5938 435.623 51.2831 435.313 51.076 434.935C50.8689 434.569 50.8323 434.271 50.9664 434.039L51.8801 432.45ZM46.1418 421.022L45.228 419.432C44.9844 419.018 44.9539 418.653 45.1367 418.336C45.3194 418.019 45.6544 417.861 46.1418 417.861H50.1623C50.479 417.861 50.8202 417.934 51.1857 418.08C51.5512 418.226 51.8923 418.421 52.2091 418.665C52.5136 418.896 52.7451 419.152 52.9035 419.432L54.731 422.594C54.9747 423.02 55.0051 423.392 54.8224 423.709C54.6396 424.026 54.3046 424.184 53.8173 424.184H44.8625C44.5336 424.184 44.1924 424.111 43.8391 423.965C43.4736 423.818 43.1386 423.624 42.834 423.38C42.5172 423.136 42.2797 422.874 42.1213 422.594L39.38 417.861H41.2075L43.9488 422.594H48.883C48.5541 422.594 48.2129 422.521 47.8596 422.375C47.4941 422.229 47.1591 422.04 46.8545 421.808C46.5377 421.565 46.3002 421.303 46.1418 421.022ZM52.9035 422.594L51.076 419.432H47.0555L48.883 422.594H52.9035ZM47.0555 419.432H51.076L50.1623 421.022H46.1418L47.0555 419.432ZM51.076 419.432L52.9035 422.594L51.9898 424.184L50.1623 421.022L51.076 419.432ZM45.1367 418.336C44.9539 418.653 44.9844 419.018 45.228 419.432L46.1418 421.022C46.3002 421.303 46.5377 421.565 46.8545 421.808C47.1591 422.04 47.4941 422.229 47.8596 422.375C48.2129 422.521 48.5541 422.594 48.883 422.594L47.9693 424.184C47.6403 424.184 47.2992 424.111 46.9459 423.965C46.5804 423.818 46.2453 423.624 45.9407 423.38C45.624 423.136 45.3864 422.874 45.228 422.594L44.3143 421.022C44.0706 420.596 44.0402 420.224 44.2229 419.908L45.1367 418.336ZM39.38 417.861L42.1213 422.594C42.2797 422.874 42.5172 423.136 42.834 423.38C43.1386 423.624 43.4736 423.818 43.8391 423.965C44.1924 424.111 44.5336 424.184 44.8625 424.184H53.8173C54.3046 424.184 54.6396 424.026 54.8224 423.709L53.9086 425.299C53.7259 425.616 53.3908 425.774 52.9035 425.774H43.9488C43.6198 425.774 43.2787 425.701 42.9254 425.555C42.5599 425.408 42.2248 425.213 41.9203 424.97C41.6035 424.726 41.3659 424.464 41.2075 424.184L38.4663 419.432L39.38 417.861ZM42.1213 413.1H49.4313L47.6038 409.938H40.2938L39.38 408.366H54L54.9137 409.938H47.6038C47.9205 409.938 48.2617 410.011 48.6272 410.157C48.9927 410.304 49.3338 410.499 49.6506 410.742C49.9551 410.986 50.1866 411.248 50.345 411.528L52.1725 414.69L44.8625 414.69C44.5336 414.69 44.1924 414.616 43.8391 414.47C43.4736 414.324 43.1386 414.129 42.834 413.885C42.5172 413.642 42.2797 413.38 42.1213 413.1ZM47.6038 409.938H54.9137L54 411.528H46.69L47.6038 409.938ZM39.38 408.366L40.2938 409.938L39.38 411.528L38.4663 409.938L39.38 408.366ZM40.2938 409.938H47.6038L46.69 411.528H39.38L40.2938 409.938ZM47.6038 409.938L49.4313 413.1L48.5175 414.69L46.69 411.528L47.6038 409.938ZM42.1213 413.1C42.2797 413.38 42.5172 413.642 42.834 413.885C43.1386 414.129 43.4736 414.324 43.8391 414.47C44.1924 414.616 44.5336 414.69 44.8625 414.69L52.1725 414.69L51.2588 416.279H43.9488C43.6198 416.279 43.2787 416.206 42.9254 416.06C42.5599 415.914 42.2248 415.719 41.9203 415.475C41.6035 415.232 41.3659 414.97 41.2075 414.69L42.1213 413.1ZM48.883 398.858H52.1725L49.4313 394.125H51.2588L54.9137 400.448H49.7968C49.4678 400.448 49.1267 400.375 48.7734 400.229C48.4079 400.082 48.0728 399.888 47.7682 399.644C47.4515 399.4 47.2139 399.138 47.0555 398.858L45.228 395.696H41.3903L43.2178 398.858H44.6798L45.5935 400.448H44.1315C43.8026 400.448 43.4614 400.375 43.1081 400.229C42.7426 400.082 42.4076 399.888 42.103 399.644C41.7862 399.4 41.5487 399.138 41.3903 398.858L39.5628 395.696C39.3191 395.282 39.2887 394.917 39.4714 394.6C39.6542 394.283 39.9892 394.125 40.4765 394.125H44.3143C44.631 394.125 44.9722 394.198 45.3377 394.344C45.7032 394.49 46.0443 394.685 46.3611 394.929C46.6657 395.16 46.8971 395.416 47.0555 395.696L48.883 398.858ZM41.3903 395.696H45.228L44.3143 397.286H40.4765L41.3903 395.696ZM49.4313 394.125L52.1725 398.858L51.2588 400.448L48.5175 395.696L49.4313 394.125ZM45.228 395.696L47.0555 398.858C47.2139 399.138 47.4515 399.4 47.7682 399.644C48.0728 399.888 48.4079 400.082 48.7734 400.229C49.1267 400.375 49.4678 400.448 49.7968 400.448H54.9137L54 402.038H48.883C48.5541 402.038 48.2129 401.965 47.8596 401.819C47.4941 401.672 47.1591 401.477 46.8545 401.234C46.5377 400.99 46.3002 400.728 46.1418 400.448L44.3143 397.286L45.228 395.696ZM39.4714 394.6C39.2887 394.917 39.3191 395.282 39.5628 395.696L41.3903 398.858C41.5487 399.138 41.7862 399.4 42.103 399.644C42.4076 399.888 42.7426 400.082 43.1081 400.229C43.4614 400.375 43.8026 400.448 44.1315 400.448H45.5935L44.6798 402.038H43.2178C42.8888 402.038 42.5477 401.965 42.1944 401.819C41.8289 401.672 41.4938 401.477 41.1893 401.234C40.8725 400.99 40.6349 400.728 40.4765 400.448L38.649 397.286C38.4054 396.86 38.3749 396.488 38.5577 396.172L39.4714 394.6ZM40.4765 389.364L38.1922 385.416C37.9485 385.002 37.918 384.637 38.1008 384.32C38.2835 383.991 38.6186 383.826 39.1059 383.826H50.8019L51.7156 385.416H48.0606L50.345 389.364H54L54.9137 390.954H43.2178C42.8888 390.954 42.5477 390.88 42.1944 390.734C41.8289 390.588 41.4938 390.393 41.1893 390.149C40.8725 389.906 40.6349 389.644 40.4765 389.364ZM46.2331 385.416H40.0197L42.304 389.364H48.5175L46.2331 385.416ZM48.0606 385.416H51.7156L50.8019 387.006H47.1469L48.0606 385.416ZM40.0197 385.416H46.2331L45.3194 387.006H39.1059L40.0197 385.416ZM46.2331 385.416L48.5175 389.364L47.6038 390.954L45.3194 387.006L46.2331 385.416ZM38.1008 384.301C37.918 384.63 37.9485 385.002 38.1922 385.416L40.4765 389.364C40.6349 389.644 40.8725 389.906 41.1893 390.149C41.4938 390.393 41.8289 390.588 42.1944 390.734C42.5477 390.88 42.8888 390.954 43.2178 390.954H54.9137L54 392.543H42.304C41.9751 392.543 41.634 392.47 41.2806 392.324C40.9151 392.178 40.5801 391.983 40.2755 391.739C39.9587 391.496 39.7212 391.234 39.5628 390.954L37.2784 387.006C37.0348 386.58 37.0043 386.208 37.187 385.891L38.1008 384.301ZM47.0555 371.157L48.883 374.319C49.1267 374.745 49.1571 375.117 48.9744 375.434C48.7916 375.75 48.4566 375.909 47.9693 375.909H43.035L42.1213 374.319L39.38 369.586H41.2075L43.035 372.747C43.2787 373.162 43.3092 373.527 43.1264 373.844C42.9437 374.161 42.6086 374.319 42.1213 374.319H47.0555L45.228 371.157C44.9844 370.743 44.9539 370.378 45.1367 370.061C45.3194 369.744 45.6544 369.586 46.1418 369.586H49.4313C49.748 369.586 50.0892 369.659 50.4547 369.805C50.8202 369.951 51.1613 370.146 51.4781 370.39C51.7826 370.621 52.0141 370.877 52.1725 371.157L54.9137 375.909H53.0863L50.345 371.157H47.0555ZM47.0555 371.157H50.345L49.4313 372.747H46.1418L47.0555 371.157ZM50.345 371.157L53.0863 375.909L52.1725 377.499L49.4313 372.747L50.345 371.157ZM53.0863 375.909H54.9137L54 377.499H52.1725L53.0863 375.909ZM39.38 369.586L42.1213 374.319L41.2075 375.909L38.4663 371.157L39.38 369.586ZM45.1367 370.061C44.9539 370.378 44.9844 370.743 45.228 371.157L47.0555 374.319L46.1418 375.909L44.3143 372.747C44.0706 372.321 44.0402 371.949 44.2229 371.633L45.1367 370.061ZM42.1213 374.319C42.6086 374.319 42.9437 374.161 43.1264 373.844L42.2127 375.434C42.0299 375.75 41.6949 375.909 41.2075 375.909L42.1213 374.319ZM43.035 375.909H47.9693C48.4566 375.909 48.7916 375.75 48.9744 375.434L48.0606 377.024C47.8779 377.34 47.5429 377.499 47.0555 377.499H42.1213L43.035 375.909ZM42.1213 374.319L43.035 375.909L42.1213 377.499L41.2075 375.909L42.1213 374.319Z" fill="black"/>
<path opacity="0.01" d="M271.142 307.363C271.349 307.729 271.385 308.033 271.251 308.277C271.117 308.509 270.837 308.624 270.411 308.624C269.984 308.624 269.564 308.509 269.15 308.277C268.736 308.033 268.425 307.729 268.218 307.363C268.011 306.998 267.974 306.699 268.108 306.468C268.242 306.224 268.522 306.102 268.949 306.102C269.375 306.102 269.796 306.224 270.21 306.468C270.624 306.699 270.935 306.998 271.142 307.363ZM279.914 307.363C280.121 307.729 280.157 308.033 280.023 308.277C279.889 308.509 279.609 308.624 279.183 308.624C278.756 308.624 278.336 308.509 277.922 308.277C277.508 308.033 277.197 307.729 276.99 307.363C276.783 306.998 276.746 306.699 276.88 306.468C277.014 306.224 277.294 306.102 277.721 306.102C278.147 306.102 278.567 306.224 278.982 306.468C279.396 306.699 279.707 306.998 279.914 307.363ZM268.108 306.45C267.974 306.693 268.011 306.998 268.218 307.363C268.425 307.729 268.736 308.033 269.15 308.277C269.564 308.509 269.984 308.624 270.411 308.624C270.837 308.624 271.117 308.509 271.251 308.277L270.338 309.849C270.204 310.092 269.923 310.214 269.497 310.214C269.071 310.214 268.65 310.098 268.236 309.867C267.822 309.623 267.511 309.313 267.304 308.935C267.097 308.569 267.06 308.271 267.194 308.039L268.108 306.45ZM276.88 306.45C276.746 306.693 276.783 306.998 276.99 307.363C277.197 307.729 277.508 308.033 277.922 308.277C278.336 308.509 278.756 308.624 279.183 308.624C279.609 308.624 279.889 308.509 280.023 308.277L279.11 309.849C278.976 310.092 278.695 310.214 278.269 310.214C277.843 310.214 277.422 310.098 277.008 309.867C276.594 309.623 276.283 309.313 276.076 308.935C275.869 308.569 275.832 308.271 275.966 308.039L276.88 306.45ZM273.883 296.594H277.173L274.431 291.861H276.259L279.914 298.184H274.797C274.468 298.184 274.127 298.111 273.773 297.965C273.408 297.818 273.073 297.624 272.768 297.38C272.451 297.136 272.214 296.874 272.056 296.594L270.228 293.432H266.39L268.218 296.594H269.68L270.594 298.184H269.132C268.803 298.184 268.461 298.111 268.108 297.965C267.743 297.818 267.408 297.624 267.103 297.38C266.786 297.136 266.549 296.874 266.39 296.594L264.563 293.432C264.319 293.018 264.289 292.653 264.471 292.336C264.654 292.019 264.989 291.861 265.477 291.861H269.314C269.631 291.861 269.972 291.934 270.338 292.08C270.703 292.226 271.044 292.421 271.361 292.665C271.666 292.896 271.897 293.152 272.056 293.432L273.883 296.594ZM266.39 293.432H270.228L269.314 295.022H265.477L266.39 293.432ZM274.431 291.861L277.173 296.594L276.259 298.184L273.518 293.432L274.431 291.861ZM270.228 293.432L272.056 296.594C272.214 296.874 272.451 297.136 272.768 297.38C273.073 297.624 273.408 297.818 273.773 297.965C274.127 298.111 274.468 298.184 274.797 298.184H279.914L279 299.774H273.883C273.554 299.774 273.213 299.701 272.86 299.555C272.494 299.408 272.159 299.213 271.854 298.97C271.538 298.726 271.3 298.464 271.142 298.184L269.314 295.022L270.228 293.432ZM264.471 292.336C264.289 292.653 264.319 293.018 264.563 293.432L266.39 296.594C266.549 296.874 266.786 297.136 267.103 297.38C267.408 297.624 267.743 297.818 268.108 297.965C268.461 298.111 268.803 298.184 269.132 298.184H270.594L269.68 299.774H268.218C267.889 299.774 267.548 299.701 267.194 299.555C266.829 299.408 266.494 299.213 266.189 298.97C265.872 298.726 265.635 298.464 265.477 298.184L263.649 295.022C263.405 294.596 263.375 294.224 263.558 293.908L264.471 292.336ZM265.477 287.1L263.192 283.152C262.949 282.738 262.918 282.373 263.101 282.056C263.284 281.727 263.619 281.562 264.106 281.562H265.933L266.847 283.152H265.02L267.304 287.1H277.904L275.619 283.152H273.792L272.878 281.562H274.705C275.022 281.562 275.363 281.642 275.729 281.8C276.094 281.946 276.435 282.141 276.752 282.385C277.057 282.616 277.288 282.872 277.447 283.152L279.731 287.1C279.975 287.526 280.005 287.898 279.822 288.214C279.64 288.531 279.305 288.69 278.817 288.69L268.218 288.69C267.889 288.69 267.548 288.616 267.194 288.47C266.829 288.324 266.494 288.129 266.189 287.885C265.872 287.642 265.635 287.38 265.477 287.1ZM272.878 281.562L273.792 283.152L272.878 284.742L271.964 283.152L272.878 281.562ZM273.792 283.152H275.619L274.705 284.742H272.878L273.792 283.152ZM275.619 283.152L277.904 287.1L276.99 288.69L274.705 284.742L275.619 283.152ZM265.02 283.152H266.847L265.933 284.742H264.106L265.02 283.152ZM263.101 282.037C262.918 282.366 262.949 282.738 263.192 283.152L265.477 287.1C265.635 287.38 265.872 287.642 266.189 287.885C266.494 288.129 266.829 288.324 267.194 288.47C267.548 288.616 267.889 288.69 268.218 288.69L278.817 288.69C279.305 288.69 279.64 288.531 279.822 288.214L278.909 289.804C278.726 290.121 278.391 290.279 277.904 290.279H267.304C266.975 290.279 266.634 290.206 266.281 290.06C265.915 289.914 265.58 289.719 265.276 289.475C264.959 289.232 264.721 288.97 264.563 288.69L262.278 284.742C262.035 284.316 262.004 283.944 262.187 283.627L263.101 282.037ZM272.056 268.893L273.883 272.055H272.056L270.228 268.893H266.39L268.218 272.055H269.68L270.594 273.645H269.132C268.803 273.645 268.461 273.572 268.108 273.426C267.743 273.279 267.408 273.084 267.103 272.841C266.786 272.597 266.549 272.335 266.39 272.055L264.563 268.893C264.319 268.479 264.289 268.114 264.471 267.797C264.654 267.48 264.989 267.322 265.477 267.322H267.487C267.804 267.322 268.145 267.395 268.51 267.541C268.876 267.687 269.217 267.882 269.534 268.126C269.838 268.357 270.07 268.613 270.228 268.893C269.984 268.479 269.954 268.114 270.137 267.797C270.319 267.48 270.654 267.322 271.142 267.322H274.431C274.748 267.322 275.089 267.395 275.455 267.541C275.82 267.687 276.161 267.882 276.478 268.126C276.783 268.357 277.014 268.613 277.173 268.893L279.914 273.645H278.086L275.345 268.893H272.056ZM272.056 268.893H275.345L274.431 270.483H271.142L272.056 268.893ZM275.345 268.893L278.086 273.645L277.173 275.235L274.431 270.483L275.345 268.893ZM278.086 273.645H279.914L279 275.235H277.173L278.086 273.645ZM270.137 267.797C269.954 268.114 269.984 268.479 270.228 268.893L269.314 270.483C269.071 270.057 269.04 269.685 269.223 269.369L270.137 267.797ZM266.39 268.893H270.228L269.314 270.483H265.477L266.39 268.893ZM270.228 268.893L272.056 272.055L271.142 273.645L269.314 270.483L270.228 268.893ZM272.056 272.055H273.883L272.969 273.645H271.142L272.056 272.055ZM264.471 267.797C264.289 268.114 264.319 268.479 264.563 268.893L266.39 272.055C266.549 272.335 266.786 272.597 267.103 272.841C267.408 273.084 267.743 273.279 268.108 273.426C268.461 273.572 268.803 273.645 269.132 273.645H270.594L269.68 275.235H268.218C267.889 275.235 267.548 275.162 267.194 275.015C266.829 274.869 266.494 274.674 266.189 274.431C265.872 274.187 265.635 273.925 265.477 273.645L263.649 270.483C263.405 270.057 263.375 269.685 263.558 269.369L264.471 267.797ZM272.056 262.561C272.299 262.987 272.33 263.359 272.147 263.675C271.964 263.992 271.629 264.15 271.142 264.15H269.132C268.803 264.15 268.461 264.077 268.108 263.931C267.743 263.785 267.408 263.59 267.103 263.346C266.786 263.103 266.549 262.841 266.39 262.561L264.563 259.399C264.319 258.985 264.289 258.619 264.471 258.302C264.654 257.986 264.989 257.827 265.477 257.827H267.487C267.804 257.827 268.145 257.9 268.51 258.047C268.876 258.193 269.217 258.388 269.534 258.631C269.838 258.863 270.07 259.119 270.228 259.399C269.984 258.985 269.954 258.619 270.137 258.302C270.319 257.986 270.654 257.827 271.142 257.827H275.162C275.479 257.827 275.82 257.9 276.186 258.047C276.551 258.193 276.892 258.388 277.209 258.631C277.514 258.863 277.745 259.119 277.904 259.399L279.731 262.561C279.975 262.987 280.005 263.359 279.822 263.675C279.64 263.992 279.305 264.15 278.817 264.15H274.797C274.468 264.15 274.127 264.077 273.773 263.931C273.408 263.785 273.073 263.59 272.768 263.346C272.451 263.103 272.214 262.841 272.056 262.561ZM277.904 262.561L276.076 259.399H272.056L273.883 262.561H277.904ZM272.056 262.561L270.228 259.399H266.39L268.218 262.561H272.056ZM270.137 258.302C269.954 258.619 269.984 258.985 270.228 259.399L269.314 260.989C269.071 260.562 269.04 260.191 269.223 259.874L270.137 258.302ZM272.056 259.399H276.076L275.162 260.989H271.142L272.056 259.399ZM276.076 259.399L277.904 262.561L276.99 264.15L275.162 260.989L276.076 259.399ZM272.056 262.561C272.214 262.841 272.451 263.103 272.768 263.346C273.073 263.59 273.408 263.785 273.773 263.931C274.127 264.077 274.468 264.15 274.797 264.15H278.817C279.305 264.15 279.64 263.992 279.822 263.675L278.909 265.265C278.726 265.582 278.391 265.74 277.904 265.74H273.883C273.554 265.74 273.213 265.667 272.86 265.521C272.494 265.375 272.159 265.18 271.854 264.936C271.538 264.693 271.3 264.431 271.142 264.15L272.056 262.561ZM266.39 259.399H270.228L269.314 260.989H265.477L266.39 259.399ZM270.228 259.399L272.056 262.561L271.142 264.15L269.314 260.989L270.228 259.399ZM264.471 258.302C264.289 258.619 264.319 258.985 264.563 259.399L266.39 262.561C266.549 262.841 266.786 263.103 267.103 263.346C267.408 263.59 267.743 263.785 268.108 263.931C268.461 264.077 268.803 264.15 269.132 264.15H271.142C271.629 264.15 271.964 263.992 272.147 263.675L271.233 265.265C271.05 265.582 270.715 265.74 270.228 265.74H268.218C267.889 265.74 267.548 265.667 267.194 265.521C266.829 265.375 266.494 265.18 266.189 264.936C265.872 264.693 265.635 264.431 265.477 264.15L263.649 260.989C263.405 260.562 263.375 260.191 263.558 259.874L264.471 258.302ZM271.142 246.747L270.228 245.157C269.984 244.743 269.954 244.378 270.137 244.061C270.319 243.744 270.654 243.586 271.142 243.586H275.162C275.479 243.586 275.82 243.659 276.186 243.805C276.551 243.951 276.892 244.146 277.209 244.39C277.514 244.621 277.745 244.877 277.904 245.157L279.731 248.319C279.975 248.745 280.005 249.117 279.822 249.434C279.64 249.75 279.305 249.909 278.817 249.909H269.863C269.534 249.909 269.192 249.836 268.839 249.69C268.474 249.543 268.139 249.348 267.834 249.105C267.517 248.861 267.28 248.599 267.121 248.319L264.38 243.586H266.208L268.949 248.319H273.883C273.554 248.319 273.213 248.246 272.86 248.1C272.494 247.953 272.159 247.765 271.854 247.533C271.538 247.289 271.3 247.028 271.142 246.747ZM277.904 248.319L276.076 245.157H272.056L273.883 248.319H277.904ZM272.056 245.157H276.076L275.162 246.747H271.142L272.056 245.157ZM276.076 245.157L277.904 248.319L276.99 249.909L275.162 246.747L276.076 245.157ZM270.137 244.061C269.954 244.378 269.984 244.743 270.228 245.157L271.142 246.747C271.3 247.028 271.538 247.289 271.854 247.533C272.159 247.765 272.494 247.953 272.86 248.1C273.213 248.246 273.554 248.319 273.883 248.319L272.969 249.909C272.64 249.909 272.299 249.836 271.946 249.69C271.58 249.543 271.245 249.348 270.941 249.105C270.624 248.861 270.386 248.599 270.228 248.319L269.314 246.747C269.071 246.321 269.04 245.949 269.223 245.633L270.137 244.061ZM264.38 243.586L267.121 248.319C267.28 248.599 267.517 248.861 267.834 249.105C268.139 249.348 268.474 249.543 268.839 249.69C269.192 249.836 269.534 249.909 269.863 249.909H278.817C279.305 249.909 279.64 249.75 279.822 249.434L278.909 251.024C278.726 251.34 278.391 251.499 277.904 251.499H268.949C268.62 251.499 268.279 251.426 267.925 251.279C267.56 251.133 267.225 250.938 266.92 250.695C266.603 250.451 266.366 250.189 266.208 249.909L263.466 245.157L264.38 243.586ZM272.056 235.663L273.883 238.825H272.056L270.228 235.663H266.39L268.218 238.825H269.68L270.594 240.414H269.132C268.803 240.414 268.461 240.341 268.108 240.195C267.743 240.049 267.408 239.854 267.103 239.61C266.786 239.367 266.549 239.105 266.39 238.825L264.563 235.663C264.319 235.249 264.289 234.883 264.471 234.566C264.654 234.25 264.989 234.091 265.477 234.091H267.487C267.804 234.091 268.145 234.164 268.51 234.311C268.876 234.457 269.217 234.652 269.534 234.895C269.838 235.127 270.07 235.383 270.228 235.663C269.984 235.249 269.954 234.883 270.137 234.566C270.319 234.25 270.654 234.091 271.142 234.091H274.431C274.748 234.091 275.089 234.164 275.455 234.311C275.82 234.457 276.161 234.652 276.478 234.895C276.783 235.127 277.014 235.383 277.173 235.663L279.914 240.414H278.086L275.345 235.663H272.056ZM272.056 235.663H275.345L274.431 237.253H271.142L272.056 235.663ZM275.345 235.663L278.086 240.414L277.173 242.004L274.431 237.253L275.345 235.663ZM278.086 240.414H279.914L279 242.004H277.173L278.086 240.414ZM270.137 234.566C269.954 234.883 269.984 235.249 270.228 235.663L269.314 237.253C269.071 236.826 269.04 236.455 269.223 236.138L270.137 234.566ZM266.39 235.663H270.228L269.314 237.253H265.477L266.39 235.663ZM270.228 235.663L272.056 238.825L271.142 240.414L269.314 237.253L270.228 235.663ZM272.056 238.825H273.883L272.969 240.414H271.142L272.056 238.825ZM264.471 234.566C264.289 234.883 264.319 235.249 264.563 235.663L266.39 238.825C266.549 239.105 266.786 239.367 267.103 239.61C267.408 239.854 267.743 240.049 268.108 240.195C268.461 240.341 268.803 240.414 269.132 240.414H270.594L269.68 242.004H268.218C267.889 242.004 267.548 241.931 267.194 241.785C266.829 241.639 266.494 241.444 266.189 241.2C265.872 240.957 265.635 240.695 265.477 240.414L263.649 237.253C263.405 236.826 263.375 236.455 263.558 236.138L264.471 234.566Z" fill="black"/>
<g opacity="0.5" clip-path="url(#clip0_9_43)">
<path fill-rule="evenodd" clip-rule="evenodd" d="M300.178 216.984L269.145 126.198L276.711 123.612L279.297 131.178L286.862 128.591L289.448 136.157L297.014 133.571L299.6 141.136L307.165 138.55L309.751 146.116L317.317 143.53L319.903 151.095L327.469 148.509L330.055 156.074L337.62 153.488L340.206 161.054L347.772 158.468L350.358 166.033L357.923 163.447L360.509 171.013L337.813 178.771L340.399 186.336L347.965 183.75L353.137 198.881L360.702 196.295L365.875 211.426L358.309 214.012L360.895 221.578L345.764 226.75L343.178 219.184L335.613 221.771L330.44 206.64L322.875 209.226L317.703 194.095L310.137 196.681L312.723 204.246L305.158 206.833L307.744 214.398L300.178 216.984Z" fill="#706D67"/>
<path fill-rule="evenodd" clip-rule="evenodd" d="M302.568 199.269L281.879 138.745L289.445 136.159L292.031 143.724L299.596 141.138L302.183 148.703L309.748 146.117L312.334 153.683L319.9 151.097L322.486 158.662L330.051 156.076L332.637 163.641L340.203 161.055L342.789 168.621L327.658 173.793L332.83 188.924L340.396 186.338L345.568 201.469L353.134 198.883L358.306 214.014L343.175 219.186L338.003 204.055L330.437 206.641L325.265 191.51L317.699 194.096L315.113 186.531L307.548 189.117L310.134 196.682L302.568 199.269Z" fill="#E6E5E5"/>
</g>
<path opacity="0.01" d="M126.458 230.544C127.504 226.425 125.014 222.238 120.894 221.192C116.775 220.146 112.589 222.637 111.543 226.756C110.496 230.875 112.987 235.061 117.106 236.108C121.225 237.154 125.412 234.663 126.458 230.544ZM112.69 227.047C113.575 223.563 117.119 221.455 120.603 222.34C124.087 223.225 126.195 226.768 125.31 230.253C124.425 233.737 120.882 235.845 117.398 234.96C113.913 234.075 111.805 230.531 112.69 227.047ZM116.005 223.616L117.202 229.722L121.997 233.688L120.8 227.581L116.005 223.616ZM117.923 229.291L117.075 225.41L120.082 228.007L117.923 229.291Z" fill="black"/>
<path opacity="0.01" d="M59.1119 240.081V230.03L57.3757 231.035V229.208L57.5402 229.116C57.9544 228.872 58.3199 228.842 58.6367 229.025C58.9535 229.208 59.1119 229.543 59.1119 230.03V228.202L60.7018 227.289V239.167L62.2734 238.254V240.081L57.3757 242.914V241.086L59.1119 240.081ZM59.1119 240.081L57.3757 241.086L55.7858 240.173L57.5402 239.167L59.1119 240.081ZM57.3757 241.086V242.914L55.7858 242V240.173L57.3757 241.086ZM62.2734 238.254L60.7018 239.167L59.1119 238.254L60.7018 237.34L62.2734 238.254ZM60.7018 227.289L59.1119 228.202L57.5402 227.289L59.1119 226.375L60.7018 227.289ZM59.1119 228.202V230.03L57.5402 229.116V227.289L59.1119 228.202ZM59.1119 230.03V240.081L57.5402 239.167V229.116L59.1119 230.03ZM58.6367 229.025C58.3199 228.842 57.9544 228.872 57.5402 229.116L57.3757 229.208L55.7858 228.294L55.9503 228.202C56.3645 227.959 56.73 227.928 57.0468 228.111L58.6367 229.025ZM57.3757 229.208V231.035L55.7858 230.121V228.294L57.3757 229.208ZM70.2118 235.056L67.0502 236.883C66.6238 237.127 66.2522 237.157 65.9354 236.974C65.6186 236.792 65.4603 236.457 65.4603 235.969V231.035L67.0502 230.121L71.7834 227.38V229.208L68.6218 231.035C68.2076 231.279 67.8421 231.309 67.5253 231.126C67.2086 230.944 67.0502 230.609 67.0502 230.121V235.056L70.2118 233.228C70.626 232.984 70.9915 232.954 71.3082 233.137C71.625 233.319 71.7834 233.654 71.7834 234.142V237.431C71.7834 237.748 71.7103 238.089 71.5641 238.455C71.4179 238.82 71.223 239.161 70.9793 239.478C70.7478 239.783 70.492 240.014 70.2118 240.173L65.4603 242.914V241.086L70.2118 238.345V235.056ZM70.2118 235.056V238.345L68.6218 237.431V234.142L70.2118 235.056ZM70.2118 238.345L65.4603 241.086L63.8703 240.173L68.6218 237.431L70.2118 238.345ZM65.4603 241.086V242.914L63.8703 242V240.173L65.4603 241.086ZM71.7834 227.38L67.0502 230.121L65.4603 229.208L70.2118 226.466L71.7834 227.38ZM71.3082 233.137C70.9915 232.954 70.626 232.984 70.2118 233.228L67.0502 235.056L65.4603 234.142L68.6218 232.314C69.0482 232.071 69.4198 232.04 69.7366 232.223L71.3082 233.137ZM67.0502 230.121C67.0502 230.609 67.2086 230.944 67.5253 231.126L65.9354 230.213C65.6186 230.03 65.4603 229.695 65.4603 229.208L67.0502 230.121ZM65.4603 231.035V235.969C65.4603 236.457 65.6186 236.792 65.9354 236.974L64.3455 236.061C64.0287 235.878 63.8703 235.543 63.8703 235.056V230.121L65.4603 231.035ZM67.0502 230.121L65.4603 231.035L63.8703 230.121L65.4603 229.208L67.0502 230.121ZM78.1162 234.142L79.7062 233.228C80.1204 232.984 80.4859 232.954 80.8027 233.137C81.1194 233.319 81.2778 233.654 81.2778 234.142V238.162C81.2778 238.479 81.2047 238.82 81.0585 239.186C80.9123 239.551 80.7174 239.892 80.4737 240.209C80.2422 240.514 79.9864 240.745 79.7062 240.904L76.5446 242.731C76.1182 242.975 75.7466 243.005 75.4298 242.822C75.1131 242.64 74.9547 242.305 74.9547 241.817V232.863C74.9547 232.534 75.0278 232.192 75.174 231.839C75.3202 231.474 75.5151 231.139 75.7588 230.834C76.0024 230.517 76.2644 230.28 76.5446 230.121L81.2778 227.38V229.208L76.5446 231.949V236.883C76.5446 236.554 76.6177 236.213 76.7639 235.86C76.9101 235.494 77.0989 235.159 77.3304 234.854C77.5741 234.538 77.836 234.3 78.1162 234.142ZM76.5446 240.904L79.7062 239.076V235.056L76.5446 236.883V240.904ZM79.7062 235.056V239.076L78.1162 238.162V234.142L79.7062 235.056ZM79.7062 239.076L76.5446 240.904L74.9547 239.99L78.1162 238.162L79.7062 239.076ZM80.8027 233.137C80.4859 232.954 80.1204 232.984 79.7062 233.228L78.1162 234.142C77.836 234.3 77.5741 234.538 77.3304 234.854C77.0989 235.159 76.9101 235.494 76.7639 235.86C76.6177 236.213 76.5446 236.554 76.5446 236.883L74.9547 235.969C74.9547 235.64 75.0278 235.299 75.174 234.946C75.3202 234.58 75.5151 234.245 75.7588 233.941C76.0024 233.624 76.2644 233.386 76.5446 233.228L78.1162 232.314C78.5427 232.071 78.9142 232.04 79.231 232.223L80.8027 233.137ZM81.2778 227.38L76.5446 230.121C76.2644 230.28 76.0024 230.517 75.7588 230.834C75.5151 231.139 75.3202 231.474 75.174 231.839C75.0278 232.192 74.9547 232.534 74.9547 232.863V241.817C74.9547 242.305 75.1131 242.64 75.4298 242.822L73.8399 241.909C73.5231 241.726 73.3648 241.391 73.3648 240.904V231.949C73.3648 231.62 73.4379 231.279 73.5841 230.925C73.7302 230.56 73.9252 230.225 74.1688 229.92C74.4125 229.603 74.6745 229.366 74.9547 229.208L79.7062 226.466L81.2778 227.38ZM86.039 235.056C85.6126 235.299 85.241 235.33 84.9242 235.147C84.6075 234.964 84.4491 234.629 84.4491 234.142V232.132C84.4491 231.803 84.5222 231.461 84.6684 231.108C84.8146 230.743 85.0095 230.408 85.2532 230.103C85.4968 229.786 85.7588 229.549 86.039 229.39L89.2006 227.563C89.6148 227.319 89.9803 227.289 90.2971 227.471C90.6138 227.654 90.7722 227.989 90.7722 228.477V230.487C90.7722 230.804 90.6991 231.145 90.5529 231.51C90.4067 231.876 90.2118 232.217 89.9681 232.534C89.7366 232.838 89.4808 233.07 89.2006 233.228C89.6148 232.984 89.9803 232.954 90.2971 233.137C90.6138 233.319 90.7722 233.654 90.7722 234.142V238.162C90.7722 238.479 90.6991 238.82 90.5529 239.186C90.4067 239.551 90.2118 239.892 89.9681 240.209C89.7366 240.514 89.4808 240.745 89.2006 240.904L86.039 242.731C85.6126 242.975 85.241 243.005 84.9242 242.822C84.6075 242.64 84.4491 242.305 84.4491 241.817V237.797C84.4491 237.468 84.5222 237.127 84.6684 236.773C84.8146 236.408 85.0095 236.073 85.2532 235.768C85.4968 235.451 85.7588 235.214 86.039 235.056ZM86.039 240.904L89.2006 239.076V235.056L86.039 236.883V240.904ZM86.039 235.056L89.2006 233.228V229.39L86.039 231.218V235.056ZM90.2971 233.137C89.9803 232.954 89.6148 232.984 89.2006 233.228L87.6106 232.314C88.0371 232.071 88.4086 232.04 88.7254 232.223L90.2971 233.137ZM89.2006 235.056V239.076L87.6106 238.162V234.142L89.2006 235.056ZM89.2006 239.076L86.039 240.904L84.4491 239.99L87.6106 238.162L89.2006 239.076ZM86.039 235.056C85.7588 235.214 85.4968 235.451 85.2532 235.768C85.0095 236.073 84.8146 236.408 84.6684 236.773C84.5222 237.127 84.4491 237.468 84.4491 237.797V241.817C84.4491 242.305 84.6075 242.64 84.9242 242.822L83.3343 241.909C83.0175 241.726 82.8592 241.391 82.8592 240.904V236.883C82.8592 236.554 82.9323 236.213 83.0785 235.86C83.2247 235.494 83.4196 235.159 83.6633 234.854C83.9069 234.538 84.1689 234.3 84.4491 234.142L86.039 235.056ZM89.2006 229.39V233.228L87.6106 232.314V228.477L89.2006 229.39ZM89.2006 233.228L86.039 235.056L84.4491 234.142L87.6106 232.314L89.2006 233.228ZM90.2971 227.471C89.9803 227.289 89.6148 227.319 89.2006 227.563L86.039 229.39C85.7588 229.549 85.4968 229.786 85.2532 230.103C85.0095 230.408 84.8146 230.743 84.6684 231.108C84.5222 231.461 84.4491 231.803 84.4491 232.132V234.142C84.4491 234.629 84.6075 234.964 84.9242 235.147L83.3343 234.233C83.0175 234.05 82.8592 233.715 82.8592 233.228V231.218C82.8592 230.889 82.9323 230.548 83.0785 230.194C83.2247 229.829 83.4196 229.494 83.6633 229.189C83.9069 228.872 84.1689 228.635 84.4491 228.477L87.6106 226.649C88.0371 226.405 88.4086 226.375 88.7254 226.558L90.2971 227.471ZM97.1051 234.142L98.695 233.228C99.1092 232.984 99.4747 232.954 99.7915 233.137C100.108 233.319 100.267 233.654 100.267 234.142V238.162C100.267 238.479 100.194 238.82 100.047 239.186C99.9011 239.551 99.7062 239.892 99.4625 240.209C99.231 240.514 98.9752 240.745 98.695 240.904L95.5334 242.731C95.107 242.975 94.7354 243.005 94.4186 242.822C94.1019 242.64 93.9435 242.305 93.9435 241.817V232.863C93.9435 232.534 94.0166 232.192 94.1628 231.839C94.309 231.474 94.5039 231.139 94.7476 230.834C94.9912 230.517 95.2532 230.28 95.5334 230.121L100.267 227.38V229.208L95.5334 231.949V236.883C95.5334 236.554 95.6065 236.213 95.7527 235.86C95.8989 235.494 96.0877 235.159 96.3192 234.854C96.5629 234.538 96.8248 234.3 97.1051 234.142ZM95.5334 240.904L98.695 239.076V235.056L95.5334 236.883V240.904ZM98.695 235.056V239.076L97.1051 238.162V234.142L98.695 235.056ZM98.695 239.076L95.5334 240.904L93.9435 239.99L97.1051 238.162L98.695 239.076ZM99.7915 233.137C99.4747 232.954 99.1092 232.984 98.695 233.228L97.1051 234.142C96.8248 234.3 96.5629 234.538 96.3192 234.854C96.0877 235.159 95.8989 235.494 95.7527 235.86C95.6065 236.213 95.5334 236.554 95.5334 236.883L93.9435 235.969C93.9435 235.64 94.0166 235.299 94.1628 234.946C94.309 234.58 94.5039 234.245 94.7476 233.941C94.9912 233.624 95.2532 233.386 95.5334 233.228L97.1051 232.314C97.5315 232.071 97.9031 232.04 98.2198 232.223L99.7915 233.137ZM100.267 227.38L95.5334 230.121C95.2532 230.28 94.9912 230.517 94.7476 230.834C94.5039 231.139 94.309 231.474 94.1628 231.839C94.0166 232.192 93.9435 232.534 93.9435 232.863V241.817C93.9435 242.305 94.1019 242.64 94.4186 242.822L92.8287 241.909C92.5119 241.726 92.3536 241.391 92.3536 240.904V231.949C92.3536 231.62 92.4267 231.279 92.5729 230.925C92.7191 230.56 92.914 230.225 93.1577 229.92C93.4013 229.603 93.6633 229.366 93.9435 229.208L98.695 226.466L100.267 227.38ZM105.028 227.563L107.385 226.192C107.812 225.949 108.183 225.918 108.5 226.101C108.817 226.284 108.975 226.619 108.975 227.106V229.847C108.975 230.164 108.902 230.505 108.756 230.871C108.61 231.236 108.415 231.577 108.171 231.894C107.927 232.199 107.665 232.43 107.385 232.588L105.028 233.959C104.601 234.203 104.23 234.233 103.913 234.05C103.596 233.868 103.438 233.533 103.438 233.045V230.304C103.438 229.975 103.511 229.634 103.657 229.281C103.803 228.915 103.998 228.58 104.242 228.276C104.486 227.959 104.748 227.721 105.028 227.563ZM105.028 232.132L107.385 230.761V228.02L105.028 229.39V232.132ZM107.385 228.02V230.761L105.814 229.847V227.106L107.385 228.02ZM107.385 230.761L105.028 232.132L103.438 231.218L105.814 229.847L107.385 230.761ZM108.5 226.101C108.183 225.918 107.812 225.949 107.385 226.192L105.028 227.563C104.748 227.721 104.486 227.959 104.242 228.276C103.998 228.58 103.803 228.915 103.657 229.281C103.511 229.634 103.438 229.975 103.438 230.304V233.045C103.438 233.533 103.596 233.868 103.913 234.05L102.323 233.137C102.006 232.954 101.848 232.619 101.848 232.132V229.39C101.848 229.061 101.921 228.72 102.067 228.367C102.213 228.001 102.408 227.666 102.652 227.362C102.896 227.045 103.158 226.807 103.438 226.649L105.814 225.278C106.228 225.035 106.593 225.004 106.91 225.187L108.5 226.101Z" fill="black"/>
<defs>
<clipPath id="clip0_9_43">
<rect width="127.925" height="127.925" fill="white" transform="translate(237.574 132.752) rotate(-18.872)"/>
</clipPath>
</defs>
</svg>
